<svg xmlns="http://www.w3.org/2000/svg" viewBox="0 0 900 900" role="img" aria-labelledby="title">
  <title id="title">Dark charcoal hat and coat stand</title>
  <defs>
    <linearGradient id="metal" x1="0" x2="1">
      <stop offset="0" stop-color="#121110"/>
      <stop offset="0.5" stop-color="#44413d"/>
      <stop offset="1" stop-color="#181716"/>
    </linearGradient>
    <filter id="shadow" x="-30%" y="-20%" width="160%" height="160%">
      <feDropShadow dx="0" dy="18" stdDeviation="22" flood-color="#000" flood-opacity="0.15"/>
    </filter>
  </defs>
  <rect width="900" height="900" fill="#fff"/>
  <ellipse cx="450" cy="777" rx="128" ry="28" fill="#111" opacity="0.09"/>
  <g filter="url(#shadow)" fill="none" stroke="url(#metal)" stroke-linecap="round" stroke-linejoin="round">
    <path d="M450 170v570" stroke-width="28"/>
    <path d="M450 246l-95-88" stroke-width="18"/>
    <path d="M355 158l-44 42" stroke-width="18"/>
    <path d="M450 320l100-76" stroke-width="18"/>
    <path d="M550 244l40 40" stroke-width="18"/>
    <path d="M450 450l-110 96" stroke-width="18"/>
    <path d="M340 546l-42-38" stroke-width="18"/>
    <path d="M450 534l100 92" stroke-width="18"/>
    <path d="M550 626l48-40" stroke-width="18"/>
    <path d="M365 742h170" stroke-width="26"/>
    <path d="M395 716h110" stroke-width="22"/>
    <circle cx="450" cy="170" r="16" fill="#2b2926" stroke="none"/>
    <circle cx="311" cy="200" r="13" fill="#2b2926" stroke="none"/>
    <circle cx="590" cy="284" r="13" fill="#2b2926" stroke="none"/>
    <circle cx="298" cy="508" r="13" fill="#2b2926" stroke="none"/>
    <circle cx="598" cy="586" r="13" fill="#2b2926" stroke="none"/>
  </g>
</svg>
